<?xml version="1.0" standalone="no"?>
<!DOCTYPE svg PUBLIC "-//W3C//DTD SVG 20010904//EN"
 "http://www.w3.org/TR/2001/REC-SVG-20010904/DTD/svg10.dtd">
<svg version="1.0" xmlns="http://www.w3.org/2000/svg"
 width="512.000000pt" height="512.000000pt" viewBox="0 0 512.000000 512.000000"
 preserveAspectRatio="xMidYMid meet">

<g transform="translate(0.000000,512.000000) scale(0.100000,-0.100000)"
fill="#000000" stroke="none">
<path d="M2430 4789 c-91 -16 -203 -57 -276 -102 -38 -24 -381 -283 -763 -577
-764 -588 -771 -594 -855 -765 -87 -175 -81 -82 -81 -1290 0 -1201 -5 -1114
75 -1281 79 -163 211 -296 374 -374 160 -77 126 -73 848 -77 l648 -4 2 670 c3
658 3 670 24 697 39 52 71 69 133 69 48 0 64 -5 95 -29 68 -52 66 -25 66 -751
l0 -656 648 4 c723 4 688 0 848 77 163 78 295 211 374 374 80 167 75 80 75
1281 0 1208 6 1115 -81 1290 -83 170 -93 179 -835 750 -371 286 -708 543 -751
571 -124 84 -247 123 -408 129 -58 2 -130 0 -160 -6z"/>
</g>
</svg>
